<svg xmlns="http://www.w3.org/2000/svg" xmlns:xlink="http://www.w3.org/1999/xlink" width="500" zoomAndPan="magnify" viewBox="0 0 375 374.999991" height="500" preserveAspectRatio="xMidYMid meet" version="1.0"><defs><clipPath id="41bd41b776"><path d="M 117.132812 7.453125 L 229.632812 7.453125 L 229.632812 119.953125 L 117.132812 119.953125 Z M 117.132812 7.453125 " clip-rule="nonzero"/></clipPath><clipPath id="b941153799"><path d="M 45.140625 119.953125 L 235 119.953125 L 235 264.703125 L 45.140625 264.703125 Z M 45.140625 119.953125 " clip-rule="nonzero"/></clipPath><clipPath id="0973835157"><path d="M 140 119.953125 L 330 119.953125 L 330 264.703125 L 140 264.703125 Z M 140 119.953125 " clip-rule="nonzero"/></clipPath></defs><rect x="-37.5" width="450" fill="#ffffff" y="-37.499999" height="449.999989" fill-opacity="1"/><rect x="-37.5" width="450" fill="#303030" y="-37.499999" height="449.999989" fill-opacity="1"/><g clip-path="url(#41bd41b776)"><path fill="#303030" d="M 117.132812 7.453125 L 229.632812 7.453125 L 229.632812 119.953125 L 117.132812 119.953125 Z M 117.132812 7.453125 " fill-opacity="1" fill-rule="nonzero"/></g><g clip-path="url(#b941153799)"><path fill="#ff073a" d="M 234.9375 119.964844 L 234.9375 159.140625 L 138.34375 206.640625 L 80.324219 178.097656 L 80.324219 247.160156 L 45.164062 264.4375 L 45.164062 121.648438 L 138.34375 167.464844 Z M 234.9375 119.964844 " fill-opacity="1" fill-rule="nonzero"/></g><g clip-path="url(#0973835157)"><path fill="#ffffff" d="M 140.050781 264.4375 L 140.050781 225.261719 L 236.644531 177.761719 L 294.664062 206.304688 L 294.664062 137.242188 L 329.824219 119.964844 L 329.824219 262.753906 L 236.644531 216.9375 Z M 140.050781 264.4375 " fill-opacity="1" fill-rule="nonzero"/></g></svg>